<svg xmlns="http://www.w3.org/2000/svg" viewBox="0 0 2560 1440" width="2560px" height="1440px">
  <clipPath id="a">
    <path d="M0 0h2560v1440H0z"/>
  </clipPath>
  <g fill="rgba(0,0,0,.05)" clip-path="url(#a)">
    <circle cx="123.09" cy="1013.75" r="204.69"/>
    <circle cx="2512.31" cy="1114.88" r="213.69"/>
    <path d="M2145.49-102.19c-39.1-239.72-261.59-401.81-496.95-361.94S1254.08-197.68 1293.18 42s261.6 401.77 497 361.94 394.41-266.41 355.31-506.13zM1750.18 159c-102.52 17.35-199.44-53.24-216.47-157.66S1586-201.8 1688.5-219.15s199.44 53.24 216.5 157.66-52.3 203.14-154.82 220.49zM844.34 992.18l823.74-240.53c-68.95-223.6-304.92-351.16-530.31-285.34s-355.64 300.3-293.43 525.87zM289.14-124c29.9-26.87 80.52-36.22 160 23.56 111.14 83.6 98.6 80.79 98.6 80.79S390-309.28 597.25-351c198.56-40 149.6 276.94 149.6 276.94s28.55-223.53 188.92-172.81c166 52.5 19.66 344.7-126.15 420.86C763.4 198.13 718 211 658.89 212.11c-87.07 1.6-177.61-10.53-316-146.56C267.12-8.89 253.38-91.87 289.14-124zM2145.49 1337.81c-39.1-239.72-261.59-401.77-496.95-361.94s-394.46 266.45-355.36 506.13 261.6 401.77 497 361.94 394.41-266.41 355.31-506.13zM1750.18 1599c-102.52 17.35-199.44-53.24-216.47-157.66s52.29-203.14 154.79-220.49 199.44 53.24 216.47 157.66-52.27 203.14-154.79 220.49zM289.14 1316c29.9-26.87 80.52-36.22 160 23.56 111.14 83.6 98.6 80.79 98.6 80.79S390 1130.72 597.25 1089c198.56-40 149.6 276.94 149.6 276.94s28.55-223.51 188.92-172.79c166 52.5 19.66 344.7-126.15 420.86-46.22 24.14-91.65 37-150.73 38.12-87.07 1.6-177.61-10.53-316-146.56-75.77-74.46-89.51-157.44-53.75-189.57zM2943.49 148.82c-71.22 88.49-134.06 97.22-196.07 109.06-38.4 7.33-69.33 7.56-106.79 48.09-42.71 46.2-31.32 98.14-36.87 136.84-7.46 52 6.35 101.41-61.44 180.21-76 88.37-164 70.87-222.56 92.53-36.66 13.57-71.53 43-98 73-46.88 53.14-134.75 106.25-212.1 38.74-78-68.07-71.41-172.49-3.1-252.52 86.64-101.49 188.65-86.34 240.67-93.67 35.4-5 57.15-11.22 83.58-41.17s30.64-50.94 32.12-90c1.88-49.4-30.57-146.46 50.57-244.26 79.75-96.12 185.57-68.92 235.8-84.28 50.66-15.48 91-85.78 125-134.67 51.15-73.51 155.17-67.3 211.89 15.81 47.07 68.88 20.73 170.47-42.7 246.29zM-375.25 285.71q-3.5-7.24-6.84-14.58A759.27 759.27 0 0 1-450.38-13.4a754.09 754.09 0 0 1 48.2-299.11 143 143 0 0 1 184.24-83.4 143 143 0 0 1 83.4 184.24c-44.76 118.79-40.27 248.09 12.65 364.08 53.07 116.33 148.46 205.35 268.59 250.7a479.79 479.79 0 0 0 200.37 30.44 478.69 478.69 0 0 0 188.37-51.4 143 143 0 0 1 192.28 62.67c.48.94.95 1.89 1.4 2.83a143 143 0 0 1-64.07 189.45A763 763 0 0 1 364.78 719c-108.89 6.76-216.25-9.5-319.08-48.32a765.09 765.09 0 0 1-257.59-161.12 763.17 763.17 0 0 1-163.36-223.85z"/>
  </g>
</svg>
